<mxfile host="Electron" modified="2024-01-05T06:03:05.031Z" agent="Mozilla/5.0 (Windows NT 10.0; Win64; x64) AppleWebKit/537.36 (KHTML, like Gecko) draw.io/22.1.16 Chrome/120.0.6099.109 Electron/28.1.0 Safari/537.36" etag="oQhbssDNtFY9szzvxSrB" version="22.1.16" type="device">
  <diagram name="Page-1" id="W6wwgODH2DVGgfq05W44">
    <mxGraphModel dx="888" dy="610" grid="1" gridSize="10" guides="1" tooltips="1" connect="1" arrows="1" fold="1" page="1" pageScale="1" pageWidth="850" pageHeight="1100" math="0" shadow="0">
      <root>
        <mxCell id="0" />
        <mxCell id="1" parent="0" />
        <mxCell id="HT6FFEnJcq3_ODHgfI4c-17" value="data&lt;br&gt;&lt;br&gt;ptr" style="rounded=0;whiteSpace=wrap;html=1;fillColor=#fad7ac;strokeColor=#b46504;fontFamily=consolas;" parent="1" vertex="1">
          <mxGeometry x="280" y="320" width="40" height="60" as="geometry" />
        </mxCell>
        <mxCell id="HT6FFEnJcq3_ODHgfI4c-18" style="edgeStyle=orthogonalEdgeStyle;rounded=0;orthogonalLoop=1;jettySize=auto;html=1;exitX=0.75;exitY=0.75;exitDx=0;exitDy=0;exitPerimeter=0;" parent="1" source="HT6FFEnJcq3_ODHgfI4c-17" target="HT6FFEnJcq3_ODHgfI4c-19" edge="1">
          <mxGeometry relative="1" as="geometry">
            <Array as="points" />
          </mxGeometry>
        </mxCell>
        <mxCell id="HT6FFEnJcq3_ODHgfI4c-19" value="data&lt;br&gt;&lt;br&gt;ptr" style="rounded=0;whiteSpace=wrap;html=1;fillColor=#fad7ac;strokeColor=#b46504;fontFamily=consolas;" parent="1" vertex="1">
          <mxGeometry x="360" y="320" width="40" height="60" as="geometry" />
        </mxCell>
        <mxCell id="HT6FFEnJcq3_ODHgfI4c-20" value="data&lt;br&gt;&lt;br&gt;ptr" style="rounded=0;whiteSpace=wrap;html=1;fillColor=#fad7ac;strokeColor=#b46504;fontFamily=consolas;" parent="1" vertex="1">
          <mxGeometry x="440" y="320" width="40" height="60" as="geometry" />
        </mxCell>
        <mxCell id="HT6FFEnJcq3_ODHgfI4c-21" style="edgeStyle=orthogonalEdgeStyle;rounded=0;orthogonalLoop=1;jettySize=auto;html=1;exitX=0.75;exitY=0.75;exitDx=0;exitDy=0;exitPerimeter=0;" parent="1" source="HT6FFEnJcq3_ODHgfI4c-20" target="HT6FFEnJcq3_ODHgfI4c-29" edge="1">
          <mxGeometry relative="1" as="geometry">
            <Array as="points">
              <mxPoint x="500" y="365" />
              <mxPoint x="500" y="350" />
            </Array>
          </mxGeometry>
        </mxCell>
        <mxCell id="HT6FFEnJcq3_ODHgfI4c-22" style="edgeStyle=orthogonalEdgeStyle;rounded=0;orthogonalLoop=1;jettySize=auto;html=1;exitX=0.75;exitY=0.75;exitDx=0;exitDy=0;exitPerimeter=0;entryX=0;entryY=0.5;entryDx=0;entryDy=0;" parent="1" source="HT6FFEnJcq3_ODHgfI4c-19" target="HT6FFEnJcq3_ODHgfI4c-20" edge="1">
          <mxGeometry relative="1" as="geometry">
            <mxPoint x="390" y="295" as="sourcePoint" />
            <mxPoint x="440" y="280" as="targetPoint" />
            <Array as="points">
              <mxPoint x="420" y="365" />
              <mxPoint x="420" y="350" />
            </Array>
          </mxGeometry>
        </mxCell>
        <mxCell id="HT6FFEnJcq3_ODHgfI4c-24" value="data&lt;br&gt;&lt;br&gt;ptr" style="rounded=0;whiteSpace=wrap;html=1;fillColor=#fad7ac;strokeColor=#b46504;fontFamily=consolas;" parent="1" vertex="1">
          <mxGeometry x="200" y="320" width="40" height="60" as="geometry" />
        </mxCell>
        <mxCell id="HT6FFEnJcq3_ODHgfI4c-25" style="edgeStyle=orthogonalEdgeStyle;rounded=0;orthogonalLoop=1;jettySize=auto;html=1;exitX=0.75;exitY=0.833;exitDx=0;exitDy=0;exitPerimeter=0;" parent="1" source="HT6FFEnJcq3_ODHgfI4c-24" target="HT6FFEnJcq3_ODHgfI4c-17" edge="1">
          <mxGeometry relative="1" as="geometry">
            <Array as="points">
              <mxPoint x="260" y="370" />
              <mxPoint x="260" y="350" />
            </Array>
            <mxPoint x="250" y="370" as="sourcePoint" />
          </mxGeometry>
        </mxCell>
        <mxCell id="HT6FFEnJcq3_ODHgfI4c-27" style="edgeStyle=orthogonalEdgeStyle;rounded=0;orthogonalLoop=1;jettySize=auto;html=1;exitX=0.75;exitY=0.75;exitDx=0;exitDy=0;exitPerimeter=0;" parent="1" target="HT6FFEnJcq3_ODHgfI4c-24" edge="1">
          <mxGeometry relative="1" as="geometry">
            <mxPoint x="150" y="365" as="sourcePoint" />
            <mxPoint x="200" y="350" as="targetPoint" />
            <Array as="points">
              <mxPoint x="180" y="365" />
              <mxPoint x="180" y="350" />
            </Array>
          </mxGeometry>
        </mxCell>
        <mxCell id="HT6FFEnJcq3_ODHgfI4c-29" value="data&lt;br&gt;&lt;br&gt;ptr" style="rounded=0;whiteSpace=wrap;html=1;fillColor=#fad7ac;strokeColor=#b46504;fontFamily=consolas;" parent="1" vertex="1">
          <mxGeometry x="520" y="320" width="40" height="60" as="geometry" />
        </mxCell>
        <mxCell id="HT6FFEnJcq3_ODHgfI4c-30" style="edgeStyle=orthogonalEdgeStyle;rounded=0;orthogonalLoop=1;jettySize=auto;html=1;exitX=0.75;exitY=0.75;exitDx=0;exitDy=0;exitPerimeter=0;" parent="1" source="HT6FFEnJcq3_ODHgfI4c-29" target="HT6FFEnJcq3_ODHgfI4c-31" edge="1">
          <mxGeometry relative="1" as="geometry">
            <Array as="points" />
          </mxGeometry>
        </mxCell>
        <mxCell id="HT6FFEnJcq3_ODHgfI4c-31" value="data&lt;br&gt;&lt;br&gt;ptr" style="rounded=0;whiteSpace=wrap;html=1;fillColor=#fad7ac;strokeColor=#b46504;fontFamily=consolas;" parent="1" vertex="1">
          <mxGeometry x="600" y="320" width="40" height="60" as="geometry" />
        </mxCell>
        <mxCell id="HT6FFEnJcq3_ODHgfI4c-32" style="edgeStyle=orthogonalEdgeStyle;rounded=0;orthogonalLoop=1;jettySize=auto;html=1;exitX=0.75;exitY=0.75;exitDx=0;exitDy=0;exitPerimeter=0;" parent="1" edge="1">
          <mxGeometry relative="1" as="geometry">
            <mxPoint x="630" y="365" as="sourcePoint" />
            <mxPoint x="680" y="350" as="targetPoint" />
            <Array as="points">
              <mxPoint x="660" y="365" />
              <mxPoint x="660" y="350" />
            </Array>
          </mxGeometry>
        </mxCell>
        <mxCell id="HT6FFEnJcq3_ODHgfI4c-34" value="data&lt;br&gt;&lt;br&gt;ptr" style="rounded=0;whiteSpace=wrap;html=1;fillColor=#fad7ac;strokeColor=#b46504;fontFamily=consolas;" parent="1" vertex="1">
          <mxGeometry x="280" y="420" width="40" height="60" as="geometry" />
        </mxCell>
        <mxCell id="HT6FFEnJcq3_ODHgfI4c-47" style="edgeStyle=orthogonalEdgeStyle;rounded=0;orthogonalLoop=1;jettySize=auto;html=1;exitX=0.75;exitY=0.667;exitDx=0;exitDy=0;exitPerimeter=0;" parent="1" source="HT6FFEnJcq3_ODHgfI4c-34" target="HT6FFEnJcq3_ODHgfI4c-45" edge="1">
          <mxGeometry relative="1" as="geometry">
            <Array as="points">
              <mxPoint x="530" y="460" />
              <mxPoint x="530" y="460" />
            </Array>
          </mxGeometry>
        </mxCell>
        <mxCell id="HT6FFEnJcq3_ODHgfI4c-35" style="edgeStyle=orthogonalEdgeStyle;rounded=0;orthogonalLoop=1;jettySize=auto;html=1;dashed=1;exitX=0.75;exitY=0.833;exitDx=0;exitDy=0;exitPerimeter=0;" parent="1" source="HT6FFEnJcq3_ODHgfI4c-34" target="HT6FFEnJcq3_ODHgfI4c-36" edge="1">
          <mxGeometry relative="1" as="geometry">
            <Array as="points">
              <mxPoint x="340" y="470" />
              <mxPoint x="340" y="500" />
            </Array>
            <mxPoint x="340" y="470" as="sourcePoint" />
          </mxGeometry>
        </mxCell>
        <mxCell id="HT6FFEnJcq3_ODHgfI4c-36" value="data&lt;br&gt;&lt;br&gt;ptr" style="rounded=0;whiteSpace=wrap;html=1;fillColor=#fad9d5;strokeColor=#ae4132;fontFamily=consolas;" parent="1" vertex="1">
          <mxGeometry x="360" y="490" width="40" height="60" as="geometry" />
        </mxCell>
        <mxCell id="HT6FFEnJcq3_ODHgfI4c-37" value="data&lt;br&gt;&lt;br&gt;ptr" style="rounded=0;whiteSpace=wrap;html=1;fillColor=#fad9d5;strokeColor=#ae4132;fontFamily=consolas;" parent="1" vertex="1">
          <mxGeometry x="440" y="490" width="40" height="60" as="geometry" />
        </mxCell>
        <mxCell id="HT6FFEnJcq3_ODHgfI4c-38" style="edgeStyle=orthogonalEdgeStyle;rounded=0;orthogonalLoop=1;jettySize=auto;html=1;exitX=0.75;exitY=0.75;exitDx=0;exitDy=0;exitPerimeter=0;" parent="1" source="HT6FFEnJcq3_ODHgfI4c-37" target="HT6FFEnJcq3_ODHgfI4c-43" edge="1">
          <mxGeometry relative="1" as="geometry">
            <Array as="points">
              <mxPoint x="500" y="535" />
              <mxPoint x="500" y="520" />
            </Array>
          </mxGeometry>
        </mxCell>
        <mxCell id="HT6FFEnJcq3_ODHgfI4c-39" style="edgeStyle=orthogonalEdgeStyle;rounded=0;orthogonalLoop=1;jettySize=auto;html=1;exitX=0.75;exitY=0.75;exitDx=0;exitDy=0;exitPerimeter=0;entryX=0;entryY=0.5;entryDx=0;entryDy=0;" parent="1" source="HT6FFEnJcq3_ODHgfI4c-36" target="HT6FFEnJcq3_ODHgfI4c-37" edge="1">
          <mxGeometry relative="1" as="geometry">
            <mxPoint x="390" y="465" as="sourcePoint" />
            <mxPoint x="440" y="450" as="targetPoint" />
            <Array as="points">
              <mxPoint x="420" y="535" />
              <mxPoint x="420" y="520" />
            </Array>
          </mxGeometry>
        </mxCell>
        <mxCell id="HT6FFEnJcq3_ODHgfI4c-40" value="data&lt;br&gt;&lt;br&gt;ptr" style="rounded=0;whiteSpace=wrap;html=1;fillColor=#fad7ac;strokeColor=#b46504;fontFamily=consolas;" parent="1" vertex="1">
          <mxGeometry x="200" y="420" width="40" height="60" as="geometry" />
        </mxCell>
        <mxCell id="HT6FFEnJcq3_ODHgfI4c-41" style="edgeStyle=orthogonalEdgeStyle;rounded=0;orthogonalLoop=1;jettySize=auto;html=1;exitX=0.75;exitY=0.833;exitDx=0;exitDy=0;exitPerimeter=0;" parent="1" source="HT6FFEnJcq3_ODHgfI4c-40" target="HT6FFEnJcq3_ODHgfI4c-34" edge="1">
          <mxGeometry relative="1" as="geometry">
            <Array as="points">
              <mxPoint x="260" y="470" />
              <mxPoint x="260" y="450" />
            </Array>
            <mxPoint x="250" y="470" as="sourcePoint" />
          </mxGeometry>
        </mxCell>
        <mxCell id="HT6FFEnJcq3_ODHgfI4c-42" style="edgeStyle=orthogonalEdgeStyle;rounded=0;orthogonalLoop=1;jettySize=auto;html=1;exitX=0.75;exitY=0.75;exitDx=0;exitDy=0;exitPerimeter=0;" parent="1" target="HT6FFEnJcq3_ODHgfI4c-40" edge="1">
          <mxGeometry relative="1" as="geometry">
            <mxPoint x="150" y="465" as="sourcePoint" />
            <mxPoint x="200" y="450" as="targetPoint" />
            <Array as="points">
              <mxPoint x="180" y="465" />
              <mxPoint x="180" y="450" />
            </Array>
          </mxGeometry>
        </mxCell>
        <mxCell id="HT6FFEnJcq3_ODHgfI4c-43" value="data&lt;br&gt;&lt;br&gt;ptr" style="rounded=0;whiteSpace=wrap;html=1;fillColor=#fad9d5;strokeColor=#ae4132;fontFamily=consolas;" parent="1" vertex="1">
          <mxGeometry x="520" y="490" width="40" height="60" as="geometry" />
        </mxCell>
        <mxCell id="HT6FFEnJcq3_ODHgfI4c-49" value="" style="edgeStyle=orthogonalEdgeStyle;rounded=0;orthogonalLoop=1;jettySize=auto;html=1;exitX=0.75;exitY=0.833;exitDx=0;exitDy=0;exitPerimeter=0;" parent="1" source="HT6FFEnJcq3_ODHgfI4c-43" target="HT6FFEnJcq3_ODHgfI4c-48" edge="1">
          <mxGeometry relative="1" as="geometry">
            <Array as="points">
              <mxPoint x="600" y="540" />
              <mxPoint x="600" y="520" />
            </Array>
          </mxGeometry>
        </mxCell>
        <mxCell id="HT6FFEnJcq3_ODHgfI4c-44" style="edgeStyle=orthogonalEdgeStyle;rounded=0;orthogonalLoop=1;jettySize=auto;html=1;dashed=1;exitX=0.75;exitY=0.667;exitDx=0;exitDy=0;exitPerimeter=0;" parent="1" source="HT6FFEnJcq3_ODHgfI4c-43" target="HT6FFEnJcq3_ODHgfI4c-45" edge="1">
          <mxGeometry relative="1" as="geometry">
            <Array as="points">
              <mxPoint x="580" y="530" />
              <mxPoint x="580" y="470" />
            </Array>
            <mxPoint x="580" y="540" as="sourcePoint" />
          </mxGeometry>
        </mxCell>
        <mxCell id="HT6FFEnJcq3_ODHgfI4c-45" value="data&lt;br&gt;&lt;br&gt;ptr" style="rounded=0;whiteSpace=wrap;html=1;fillColor=#fad7ac;strokeColor=#b46504;fontFamily=consolas;" parent="1" vertex="1">
          <mxGeometry x="600" y="420" width="40" height="60" as="geometry" />
        </mxCell>
        <mxCell id="HT6FFEnJcq3_ODHgfI4c-46" style="edgeStyle=orthogonalEdgeStyle;rounded=0;orthogonalLoop=1;jettySize=auto;html=1;exitX=0.75;exitY=0.75;exitDx=0;exitDy=0;exitPerimeter=0;" parent="1" edge="1">
          <mxGeometry relative="1" as="geometry">
            <mxPoint x="630" y="465" as="sourcePoint" />
            <mxPoint x="680" y="450" as="targetPoint" />
            <Array as="points">
              <mxPoint x="660" y="465" />
              <mxPoint x="660" y="450" />
            </Array>
          </mxGeometry>
        </mxCell>
        <mxCell id="HT6FFEnJcq3_ODHgfI4c-48" value="nullptr" style="rounded=0;fillColor=#EEEEEE;strokeColor=#36393d;fontFamily=consolas;horizontal=0;fontSize=12;html=1;whiteSpace=wrap;align=center;verticalAlign=middle;labelPosition=center;verticalLabelPosition=middle;fontStyle=0;" parent="1" vertex="1">
          <mxGeometry x="640" y="490" width="40" height="60" as="geometry" />
        </mxCell>
        <mxCell id="qOYWN9N4HNeB269NoZSH-1" value="data&lt;br&gt;&lt;br&gt;ptr" style="rounded=0;whiteSpace=wrap;html=1;fillColor=#fad7ac;strokeColor=#b46504;fontFamily=consolas;" parent="1" vertex="1">
          <mxGeometry x="280" y="580" width="40" height="60" as="geometry" />
        </mxCell>
        <mxCell id="qOYWN9N4HNeB269NoZSH-2" style="edgeStyle=orthogonalEdgeStyle;rounded=0;orthogonalLoop=1;jettySize=auto;html=1;exitX=0.75;exitY=0.75;exitDx=0;exitDy=0;exitPerimeter=0;" parent="1" source="qOYWN9N4HNeB269NoZSH-1" target="qOYWN9N4HNeB269NoZSH-14" edge="1">
          <mxGeometry relative="1" as="geometry">
            <Array as="points">
              <mxPoint x="460" y="625" />
              <mxPoint x="460" y="625" />
            </Array>
            <mxPoint x="310" y="630" as="sourcePoint" />
          </mxGeometry>
        </mxCell>
        <mxCell id="qOYWN9N4HNeB269NoZSH-4" value="&lt;strike&gt;data&lt;br&gt;&lt;br&gt;ptr&lt;/strike&gt;" style="rounded=0;whiteSpace=wrap;html=1;fillColor=#fad9d5;strokeColor=#ae4132;fontFamily=consolas;dashed=1;" parent="1" vertex="1">
          <mxGeometry x="360" y="650" width="40" height="60" as="geometry" />
        </mxCell>
        <mxCell id="qOYWN9N4HNeB269NoZSH-5" value="&lt;strike&gt;data&lt;br&gt;&lt;br&gt;ptr&lt;/strike&gt;" style="rounded=0;whiteSpace=wrap;html=1;fillColor=#fad9d5;strokeColor=#ae4132;fontFamily=consolas;dashed=1;" parent="1" vertex="1">
          <mxGeometry x="440" y="650" width="40" height="60" as="geometry" />
        </mxCell>
        <mxCell id="qOYWN9N4HNeB269NoZSH-6" style="edgeStyle=orthogonalEdgeStyle;rounded=0;orthogonalLoop=1;jettySize=auto;html=1;exitX=0.75;exitY=0.75;exitDx=0;exitDy=0;exitPerimeter=0;dashed=1;" parent="1" source="qOYWN9N4HNeB269NoZSH-5" target="qOYWN9N4HNeB269NoZSH-11" edge="1">
          <mxGeometry relative="1" as="geometry">
            <Array as="points">
              <mxPoint x="500" y="695" />
              <mxPoint x="500" y="680" />
            </Array>
          </mxGeometry>
        </mxCell>
        <mxCell id="qOYWN9N4HNeB269NoZSH-7" style="edgeStyle=orthogonalEdgeStyle;rounded=0;orthogonalLoop=1;jettySize=auto;html=1;exitX=0.75;exitY=0.75;exitDx=0;exitDy=0;exitPerimeter=0;entryX=0;entryY=0.5;entryDx=0;entryDy=0;dashed=1;" parent="1" source="qOYWN9N4HNeB269NoZSH-4" target="qOYWN9N4HNeB269NoZSH-5" edge="1">
          <mxGeometry relative="1" as="geometry">
            <mxPoint x="390" y="625" as="sourcePoint" />
            <mxPoint x="440" y="610" as="targetPoint" />
            <Array as="points">
              <mxPoint x="420" y="695" />
              <mxPoint x="420" y="680" />
            </Array>
          </mxGeometry>
        </mxCell>
        <mxCell id="qOYWN9N4HNeB269NoZSH-8" value="data&lt;br&gt;&lt;br&gt;ptr" style="rounded=0;whiteSpace=wrap;html=1;fillColor=#fad7ac;strokeColor=#b46504;fontFamily=consolas;" parent="1" vertex="1">
          <mxGeometry x="200" y="580" width="40" height="60" as="geometry" />
        </mxCell>
        <mxCell id="qOYWN9N4HNeB269NoZSH-9" style="edgeStyle=orthogonalEdgeStyle;rounded=0;orthogonalLoop=1;jettySize=auto;html=1;exitX=0.75;exitY=0.833;exitDx=0;exitDy=0;exitPerimeter=0;" parent="1" source="qOYWN9N4HNeB269NoZSH-8" target="qOYWN9N4HNeB269NoZSH-1" edge="1">
          <mxGeometry relative="1" as="geometry">
            <Array as="points">
              <mxPoint x="260" y="630" />
              <mxPoint x="260" y="610" />
            </Array>
            <mxPoint x="250" y="630" as="sourcePoint" />
          </mxGeometry>
        </mxCell>
        <mxCell id="qOYWN9N4HNeB269NoZSH-10" style="edgeStyle=orthogonalEdgeStyle;rounded=0;orthogonalLoop=1;jettySize=auto;html=1;exitX=0.75;exitY=0.75;exitDx=0;exitDy=0;exitPerimeter=0;" parent="1" target="qOYWN9N4HNeB269NoZSH-8" edge="1">
          <mxGeometry relative="1" as="geometry">
            <mxPoint x="150" y="625" as="sourcePoint" />
            <mxPoint x="200" y="610" as="targetPoint" />
            <Array as="points">
              <mxPoint x="180" y="625" />
              <mxPoint x="180" y="610" />
            </Array>
          </mxGeometry>
        </mxCell>
        <mxCell id="qOYWN9N4HNeB269NoZSH-11" value="&lt;strike&gt;data&lt;br&gt;&lt;br&gt;ptr&lt;/strike&gt;" style="rounded=0;whiteSpace=wrap;html=1;fillColor=#fad9d5;strokeColor=#ae4132;fontFamily=consolas;dashed=1;" parent="1" vertex="1">
          <mxGeometry x="520" y="650" width="40" height="60" as="geometry" />
        </mxCell>
        <mxCell id="qOYWN9N4HNeB269NoZSH-14" value="data&lt;br&gt;&lt;br&gt;ptr" style="rounded=0;whiteSpace=wrap;html=1;fillColor=#fad7ac;strokeColor=#b46504;fontFamily=consolas;" parent="1" vertex="1">
          <mxGeometry x="600" y="580" width="40" height="60" as="geometry" />
        </mxCell>
        <mxCell id="qOYWN9N4HNeB269NoZSH-15" style="edgeStyle=orthogonalEdgeStyle;rounded=0;orthogonalLoop=1;jettySize=auto;html=1;exitX=0.75;exitY=0.75;exitDx=0;exitDy=0;exitPerimeter=0;" parent="1" edge="1">
          <mxGeometry relative="1" as="geometry">
            <mxPoint x="630" y="625" as="sourcePoint" />
            <mxPoint x="680" y="610" as="targetPoint" />
            <Array as="points">
              <mxPoint x="660" y="625" />
              <mxPoint x="660" y="610" />
            </Array>
          </mxGeometry>
        </mxCell>
        <mxCell id="qOYWN9N4HNeB269NoZSH-17" value="" style="shape=flexArrow;endArrow=classic;html=1;rounded=0;fillColor=#f5f5f5;gradientColor=#b3b3b3;strokeColor=#666666;" parent="1" edge="1">
          <mxGeometry width="50" height="50" relative="1" as="geometry">
            <mxPoint x="700" y="320" as="sourcePoint" />
            <mxPoint x="700" y="730" as="targetPoint" />
          </mxGeometry>
        </mxCell>
        <mxCell id="7FRa14JFVMaBeoP0Eff5-2" value="head&lt;br&gt;&lt;br&gt;ptr" style="rounded=0;whiteSpace=wrap;html=1;fillColor=#fad9d5;strokeColor=#ae4132;fontFamily=consolas;" parent="1" vertex="1">
          <mxGeometry x="280" y="490" width="40" height="60" as="geometry" />
        </mxCell>
        <mxCell id="7FRa14JFVMaBeoP0Eff5-3" value="" style="edgeStyle=orthogonalEdgeStyle;rounded=0;orthogonalLoop=1;jettySize=auto;html=1;exitX=0.75;exitY=0.75;exitDx=0;exitDy=0;exitPerimeter=0;" parent="1" source="7FRa14JFVMaBeoP0Eff5-2" target="HT6FFEnJcq3_ODHgfI4c-36" edge="1">
          <mxGeometry relative="1" as="geometry" />
        </mxCell>
        <mxCell id="7FRa14JFVMaBeoP0Eff5-4" value="head&lt;br&gt;&lt;br&gt;ptr" style="rounded=0;whiteSpace=wrap;html=1;fillColor=#fad9d5;strokeColor=#ae4132;fontFamily=consolas;" parent="1" vertex="1">
          <mxGeometry x="280" y="650" width="40" height="60" as="geometry" />
        </mxCell>
        <mxCell id="7FRa14JFVMaBeoP0Eff5-7" style="edgeStyle=orthogonalEdgeStyle;rounded=0;orthogonalLoop=1;jettySize=auto;html=1;exitX=0.5;exitY=0.833;exitDx=0;exitDy=0;exitPerimeter=0;" parent="1" source="7FRa14JFVMaBeoP0Eff5-4" target="7FRa14JFVMaBeoP0Eff5-6" edge="1">
          <mxGeometry relative="1" as="geometry">
            <Array as="points">
              <mxPoint x="300" y="730" />
              <mxPoint x="600" y="730" />
              <mxPoint x="600" y="680" />
            </Array>
          </mxGeometry>
        </mxCell>
        <mxCell id="7FRa14JFVMaBeoP0Eff5-5" value="" style="edgeStyle=orthogonalEdgeStyle;rounded=0;orthogonalLoop=1;jettySize=auto;html=1;exitX=0.75;exitY=0.75;exitDx=0;exitDy=0;exitPerimeter=0;dashed=1;" parent="1" source="7FRa14JFVMaBeoP0Eff5-4" target="qOYWN9N4HNeB269NoZSH-4" edge="1">
          <mxGeometry relative="1" as="geometry" />
        </mxCell>
        <mxCell id="7FRa14JFVMaBeoP0Eff5-6" value="nullptr" style="rounded=0;fillColor=#EEEEEE;strokeColor=#36393d;fontFamily=consolas;horizontal=0;fontSize=12;html=1;whiteSpace=wrap;align=center;verticalAlign=middle;labelPosition=center;verticalLabelPosition=middle;fontStyle=0;" parent="1" vertex="1">
          <mxGeometry x="640" y="650" width="40" height="60" as="geometry" />
        </mxCell>
      </root>
    </mxGraphModel>
  </diagram>
</mxfile>
